<?xml version="1.0" standalone="no"?>
<!DOCTYPE svg PUBLIC "-//W3C//DTD SVG 20010904//EN"
 "http://www.w3.org/TR/2001/REC-SVG-20010904/DTD/svg10.dtd">
<svg version="1.0" xmlns="http://www.w3.org/2000/svg"
 width="275.000000pt" height="184.000000pt" viewBox="0 0 275.000000 184.000000"
 preserveAspectRatio="xMidYMid meet">

<g transform="translate(0.000000,184.000000) scale(0.100000,-0.100000)"
fill="#000000" stroke="none">
<path d="M623 1822 c10 -10 17 -24 17 -30 0 -7 9 -12 19 -12 11 0 23 -4 26
-10 3 -5 24 -10 46 -10 24 0 46 -7 57 -18 24 -24 78 -46 92 -37 6 4 22 0 35
-9 15 -10 46 -16 79 -16 44 0 54 -3 50 -14 -4 -11 0 -13 18 -9 l23 5 -25 -21
-25 -21 42 17 41 18 -26 10 c-24 10 -23 11 16 11 41 -1 55 -10 30 -19 -7 -2
10 -3 37 -1 68 3 67 3 61 12 -2 4 4 8 14 9 11 1 23 -3 26 -9 4 -7 9 -7 13 0 4
7 22 7 55 -1 45 -10 50 -9 66 10 32 40 60 38 109 -7 24 -22 47 -40 52 -40 5 0
9 -4 9 -10 0 -5 21 -7 50 -3 32 4 50 2 50 -5 0 -16 27 -22 61 -12 21 6 37 6
44 0 7 -5 14 -7 18 -4 3 3 3 -3 0 -15 -3 -13 -1 -21 7 -21 6 0 14 9 17 20 6
22 28 27 37 8 5 -10 7 -10 12 0 5 11 9 10 23 -2 9 -8 20 -14 26 -14 5 0 17
-11 25 -25 8 -14 31 -38 50 -55 30 -26 43 -30 100 -31 36 -1 67 -6 68 -11 7
-20 19 -9 32 30 9 27 19 40 32 40 10 0 18 -5 18 -11 0 -6 7 -8 16 -5 16 6 94
-58 94 -79 0 -6 8 -20 18 -31 31 -35 62 -77 62 -85 0 -5 -9 -18 -20 -29 -16
-16 -18 -24 -8 -50 7 -21 15 -29 25 -26 8 3 23 6 34 6 10 0 19 5 19 12 0 6 18
29 40 49 23 22 43 51 46 68 4 17 13 31 21 31 8 0 12 -3 9 -8 -2 -4 2 -16 10
-27 10 -13 14 -15 14 -4 0 12 2 12 10 -1 7 -10 10 -11 10 -2 0 7 -7 15 -15 18
-19 8 -20 24 -1 24 7 0 16 -8 20 -17 6 -21 23 -47 51 -80 20 -24 29 -93 13
-93 -15 0 -38 -27 -38 -44 0 -26 -28 -44 -69 -44 -28 -1 -52 -9 -74 -26 -19
-14 -39 -26 -45 -26 -16 0 -15 -63 0 -78 6 -6 8 -15 4 -19 -4 -4 -11 -1 -16 7
-5 8 -12 11 -16 8 -10 -11 4 -40 16 -33 5 3 10 1 10 -5 0 -7 8 -9 19 -5 15 4
21 -1 30 -25 5 -17 19 -44 31 -59 11 -16 20 -35 20 -43 0 -8 11 -25 25 -38 14
-13 25 -29 25 -37 0 -7 8 -22 18 -33 9 -10 27 -31 40 -44 12 -14 22 -30 22
-36 0 -5 7 -10 15 -10 13 0 15 31 15 219 0 166 -3 221 -12 224 -10 4 -10 6 0
6 9 1 12 88 12 401 l0 400 -1072 0 c-1037 0 -1071 -1 -1055 -18z m772 -141
c-3 -6 -11 -11 -16 -11 -5 0 -4 6 3 14 14 16 24 13 13 -3z m1277 -627 c7 -8
20 -23 28 -32 14 -15 13 -19 -4 -39 -17 -21 -21 -21 -47 -7 -25 12 -49 41 -49
58 0 3 9 6 20 6 11 0 20 7 20 15 0 20 16 19 32 -1z"/>
<path d="M1938 1483 c-22 -5 -23 -22 -3 -29 8 -4 13 -10 10 -14 -5 -7 76 -22
83 -15 5 5 -60 66 -68 64 -3 -1 -13 -3 -22 -6z"/>
<path d="M2100 1430 c0 -5 9 -10 20 -10 11 0 20 5 20 10 0 6 -9 10 -20 10 -11
0 -20 -4 -20 -10z"/>
<path d="M88 1273 c7 -3 16 -2 19 1 4 3 -2 6 -13 5 -11 0 -14 -3 -6 -6z"/>
<path d="M140 1221 c0 -21 21 -33 38 -22 8 5 5 12 -8 24 -26 22 -30 21 -30 -2z"/>
<path d="M223 1202 c-21 -7 -21 -7 -2 -31 l19 -23 0 25 c0 14 6 28 13 30 17 8
-4 6 -30 -1z"/>
<path d="M320 1132 c0 -7 -7 -12 -16 -12 -8 0 -12 -4 -9 -10 3 -5 10 -10 15
-10 10 0 22 31 15 38 -3 3 -5 0 -5 -6z"/>
<path d="M1280 1110 c0 -5 -11 -10 -23 -10 -35 0 -97 -57 -97 -89 0 -36 -13
-53 -37 -49 -22 3 -26 -6 -17 -36 4 -13 8 -15 14 -7 4 7 15 14 25 15 10 1 20
11 21 21 1 10 10 25 18 34 15 14 16 14 16 -1 0 -14 5 -14 40 5 22 12 40 27 40
33 0 6 16 18 35 27 36 17 47 37 20 37 -9 0 -18 7 -21 15 -7 17 -34 21 -34 5z"/>
<path d="M2400 901 c0 -25 6 -27 13 -6 4 8 2 17 -3 20 -6 4 -10 -3 -10 -14z"/>
<path d="M0 663 c1 -155 5 -242 10 -232 5 9 23 22 40 29 16 7 30 18 30 24 0
16 42 56 58 56 7 0 12 5 12 11 0 8 4 8 13 1 10 -8 13 -6 14 8 1 11 -2 22 -8
25 -12 8 -12 72 1 80 6 4 7 11 4 17 -5 7 0 9 14 6 16 -4 19 -2 15 10 -4 8 -2
13 3 9 6 -3 11 3 11 14 1 11 -5 19 -13 19 -8 0 -17 13 -20 29 -4 18 -14 31
-26 34 -11 3 -18 9 -15 14 3 4 -10 19 -29 33 -18 14 -34 33 -34 43 0 13 -9 17
-40 17 l-40 0 0 -247z m187 41 c-3 -3 -12 -4 -19 -1 -8 3 -5 6 6 6 11 1 17 -2
13 -5z"/>
<path d="M2318 758 c-2 -6 -23 -12 -47 -14 -49 -2 -83 -24 -38 -24 15 0 27 -4
27 -10 0 -11 1 -11 -50 -15 -50 -3 -50 -3 -50 -20 0 -8 -3 -14 -7 -13 -12 4
-53 -35 -53 -49 0 -7 -4 -13 -10 -13 -5 0 -10 -6 -10 -14 0 -13 -26 -27 -76
-41 -31 -8 -94 54 -94 94 0 45 -10 64 -26 50 -16 -13 -34 -4 -35 19 0 13 -2
12 -9 -5 -6 -15 -15 -20 -29 -16 -14 3 -21 1 -21 -8 -1 -10 -4 -8 -11 4 -8 13
-23 17 -64 17 -45 0 -55 -3 -60 -20 -6 -18 -8 -18 -21 -5 -20 20 -39 19 -60
-2 -15 -15 -17 -15 -12 -2 9 23 -29 43 -84 44 -37 1 -49 -2 -53 -16 -7 -23
-112 -40 -147 -25 -13 6 -18 4 -18 -9 0 -11 -5 -15 -16 -11 -20 8 -44 -16 -44
-43 0 -18 -4 -20 -25 -15 -35 9 -84 -4 -64 -17 12 -7 12 -9 -2 -9 -13 0 -15
-8 -12 -35 3 -26 0 -35 -12 -35 -8 0 -15 -4 -15 -10 0 -5 -7 -10 -15 -10 -9 0
-15 -9 -15 -21 0 -15 -5 -19 -16 -15 -8 3 -13 2 -10 -3 3 -4 -8 -20 -24 -34
l-29 -26 -20 25 c-13 16 -21 20 -24 12 -4 -10 -8 -9 -16 2 -8 11 -11 11 -11 2
0 -9 -5 -10 -19 -2 -11 5 -29 10 -41 10 -19 0 -29 6 -65 38 -7 6 -21 12 -29
12 -13 0 -16 12 -16 55 0 34 -4 55 -11 55 -6 0 -9 -6 -6 -14 10 -26 -27 -45
-98 -51 -83 -7 -95 -9 -116 -19 -8 -4 -27 -3 -40 3 -20 7 -28 5 -36 -8 -8 -13
-25 -18 -65 -19 -98 -1 -108 -2 -108 -13 0 -6 -6 -17 -14 -24 -8 -8 -19 -38
-26 -67 -11 -44 -36 -80 -48 -69 -2 1 -14 -5 -28 -14 -21 -13 -31 -14 -60 -5
-59 20 -64 8 -64 -151 l0 -139 1375 0 1375 0 0 194 c0 163 -2 195 -15 200 -8
3 -15 12 -15 20 0 16 -54 38 -75 30 -9 -4 -16 3 -21 20 -7 28 -49 60 -65 50
-25 -15 -79 -21 -125 -12 -27 4 -58 9 -69 11 -12 1 -21 11 -23 25 -2 12 -7 22
-11 22 -5 0 -11 25 -14 56 -3 30 -13 66 -22 80 -15 23 -14 24 5 24 11 0 20 6
20 14 0 8 5 16 12 18 9 3 9 6 1 11 -6 4 -13 2 -15 -5z m-491 -160 c-3 -7 -5
-2 -5 12 0 14 2 19 5 13 2 -7 2 -19 0 -25z m-923 -252 c-10 -8 -25 -11 -33 -8
-10 4 -12 1 -6 -8 6 -10 4 -12 -9 -7 -10 4 -15 3 -11 -3 4 -6 -7 -16 -24 -23
-17 -7 -29 -16 -26 -19 10 -10 -30 -5 -44 5 -18 15 -41 18 -41 6 0 -6 -4 -8
-10 -4 -5 3 -7 12 -4 20 9 24 34 25 55 4 15 -15 24 -18 28 -10 17 27 73 58
107 59 34 1 35 0 18 -12z"/>
<path d="M1750 750 c0 -5 9 -10 21 -10 11 0 17 5 14 10 -3 6 -13 10 -21 10 -8
0 -14 -4 -14 -10z"/>
<path d="M1725 729 c-9 -14 0 -22 18 -17 13 2 13 5 2 15 -10 9 -16 9 -20 2z"/>
<path d="M1828 733 c7 -3 16 -2 19 1 4 3 -2 6 -13 5 -11 0 -14 -3 -6 -6z"/>
<path d="M1865 730 c3 -5 8 -10 11 -10 2 0 4 5 4 10 0 6 -5 10 -11 10 -5 0 -7
-4 -4 -10z"/>
</g>
</svg>
